#!OML:ASF H:\ManfredETheater\Project 1\Capture day 1\Session 1\subject.ASF
:FULLY-SPECIFIED
:DEGREES
97
root -4.23807 14.732 -23.8409 -8.69574 33.7193 -18.0442
lowerback 34.2553 -1.62767 4.62295
upperback 5.8448 0.0573487 1.79961
thorax -10.9342 -0.0107832 -0.582556
lowerneck -13.2413 -8.93334 -8.46386
upperneck 5.32881 -11.6505 11.6648
head 4.95175 -5.28454 3.94839
rclavicle 5.80451e-014 -8.74653e-014
rhumerus -37.5938 3.57045 -78.1754
rradius 76.6843
rwrist 0.921404
rhand -28.8407 -7.89962
rfingers 7.12502
rthumb -2.1979 -37.868
lclavicle 5.80451e-014 -8.74653e-014
lhumerus -29.2167 -14.1217 90.6518
lradius 86.4495
lwrist -7.85159
lhand -27.2527 -6.9167
lfingers 7.12502
lthumb -0.664194 23.062
rfemur -52.5012 -20.4668 39.2429
rtibia 83.5151
rfoot -15.3089 -8.83283
rtoes -30.4749
lfemur -66.7012 3.35205 -14.9274
ltibia 86.3596
lfoot -18.4467 -17.2556
ltoes -18.601
98
root -4.26007 14.7651 -23.6454 -8.98393 34.0929 -18.3193
lowerback 34.6822 -1.58949 4.45082
upperback 6.10146 0.0564601 1.66492
thorax -10.811 0.00316443 -0.632103
lowerneck -13.0867 -9.04716 -8.54675
upperneck 5.10349 -11.8313 12.1166
head 4.91275 -5.36107 4.08879
rclavicle -4.37326e-014 9.54166e-015
rhumerus -36.9179 3.29024 -77.7464
rradius 78.5002
rwrist 0.710282
rhand -29.183 -7.45251
rfingers 7.12502
rthumb -2.52845 -37.4173
lclavicle -4.37326e-014 9.54166e-015
lhumerus -29.2153 -14.5824 90.2992
lradius 87.2928
lwrist -8.17856
lhand -27.3855 -6.14213
lfingers 7.12502
lthumb -0.792424 23.8361
rfemur -52.8781 -21.205 39.4006
rtibia 84.9153
rfoot -13.6193 -6.96895
rtoes -30.2405
lfemur -66.8257 3.30057 -15.5201
ltibia 84.0819
lfoot -16.1852 -18.1744
ltoes -18.5882
99
root -4.27756 14.791 -23.4506 -9.25314 34.4216 -18.5222
lowerback 35.1564 -1.56026 4.26598
upperback 6.28576 0.0412857 1.51175
thorax -10.6677 0.0108252 -0.670985
lowerneck -12.9134 -9.13115 -8.62191
upperneck 4.92199 -11.9689 12.4898
head 4.87468 -5.42113 4.20867
rclavicle 3.10104e-014 -5.56597e-014
rhumerus -36.302 2.96457 -77.4058
rradius 80.2259
rwrist 0.54277
rhand -29.4522 -7.41246
rfingers 7.12502
rthumb -2.78841 -37.374
lclavicle 3.10104e-014 -5.56597e-014
lhumerus -29.2762 -15.0319 89.9826
lradius 88.0978
lwrist -8.50981
lhand -27.5683 -5.33219
lfingers 7.12502
lthumb -0.968955 24.6454
rfemur -53.3871 -21.852 39.3274
rtibia 86.4416
rfoot -11.543 -4.8594
rtoes -29.7247
lfemur -66.7784 3.36684 -16.1696
ltibia 82.0404
lfoot -13.7515 -18.744
ltoes -18.0313
100
root -4.29073 14.8071 -23.2558 -9.5101 34.7181 -18.6674
lowerback 35.5202 -1.52574 4.05554
upperback 6.54876 0.0163299 1.38017
thorax -10.5115 0.0149575 -0.689612
lowerneck -12.725 -9.19226 -8.70607
upperneck 4.78785 -12.0704 12.7842
head 4.8403 -5.46802 4.30967
rclavicle 5.48646e-014 1.59028e-015
rhumerus -35.7731 2.63801 -77.1401
rradius 81.8735
rwrist 0.426354
rhand -29.6492 -7.76285
rfingers 7.12502
rthumb -2.97872 -37.7218
lclavicle 5.48646e-014 1.59028e-015
lhumerus -29.3884 -15.477 89.7262
lradius 88.8465
lwrist -8.86233
lhand -27.7615 -4.4679
lfingers 7.12502
lthumb -1.15552 25.5087
rfemur -53.993 -22.4132 39.0438
rtibia 88.0214
rfoot -9.2833 -2.72011
rtoes -28.9858
lfemur -66.6078 3.55982 -16.8923
ltibia 80.2931
lfoot -11.3412 -18.9031
ltoes -16.7716
101
root -4.30004 14.8116 -23.0606 -9.76192 34.9983 -18.7789
lowerback 35.8494 -1.49501 3.84899
upperback 6.80356 -0.0118971 1.26823
thorax -10.3503 0.0170499 -0.68824
lowerneck -12.5186 -9.23578 -8.80013
upperneck 4.69547 -12.143 12.9994
head 4.80773 -5.5052 4.39119
rclavicle 1.03368e-014 9.54166e-015
rhumerus -35.359 2.3371 -76.9367
rradius 83.4503
rwrist 0.361531
rhand -29.7922 -8.36934
rfingers 7.12502
rthumb -3.11677 -38.3263
lclavicle 1.03368e-014 9.54166e-015
lhumerus -29.5453 -15.9315 89.5446
lradius 89.531
lwrist -9.2408
lhand -27.9293 -3.53118
lfingers 7.12502
lthumb -1.31762 26.4445
rfemur -54.6654 -22.9003 38.592
rtibia 89.574
rfoot -7.12355 -0.74209
rtoes -28.1643
lfemur -66.3629 3.87934 -17.6872
ltibia 78.8813
lfoot -9.0607 -18.696
ltoes -14.1208
102
root -4.30613 14.8033 -22.8649 -10.013 35.2662 -18.887
lowerback 36.1333 -1.4666 3.66448
upperback 7.04353 -0.0339474 1.18662
thorax -10.1875 0.0207092 -0.668758
lowerneck -12.2923 -9.2698 -8.91831
upperneck 4.64104 -12.1978 13.1566
head 4.77887 -5.53718 4.46089
rclavicle 6.2816e-014 -9.54166e-015
rhumerus -35.0838 2.07655 -76.7798
rradius 84.963
rwrist 0.368084
rhand -29.8619 -9.09016
rfingers 7.12502
rthumb -3.18408 -39.0461
lclavicle 6.2816e-014 -9.54166e-015
lhumerus -29.7366 -16.4027 89.453
lradius 90.1469
lwrist -9.65734
lhand -28.0308 -2.49695
lfingers 7.12502
lthumb -1.41567 27.4781
rfemur -55.3798 -23.308 38.0267
rtibia 91.0243
rfoot -5.37183 0.837434
rtoes -27.3552
lfemur -66.0868 4.33471 -18.5405
ltibia 77.8419
lfoot -7.09851 -18.0985
ltoes -9.97043
103
root -4.31004 14.7819 -22.6682 -10.2715 35.5467 -19.0236
lowerback 36.368 -1.44999 3.52266
upperback 7.26407 -0.0528849 1.14288
thorax -10.0272 0.0239894 -0.632768
lowerneck -12.0492 -9.29852 -9.06095
upperneck 4.61569 -12.2413 13.2704
head 4.75322 -5.56633 4.52263
rclavicle 1.98785e-014 1.59028e-015
rhumerus -34.9617 1.85859 -76.6575
rradius 86.4203
rwrist 0.463206
rhand -29.8272 -9.8047
rfingers 7.12502
rthumb -3.15059 -39.7612
lclavicle 1.98785e-014 1.59028e-015
lhumerus -29.9528 -16.8914 89.4542
lradius 90.6945
lwrist -10.1367
lhand -28.0335 -1.35995
lfingers 7.12502
lthumb -1.4183 28.6151
rfemur -56.1208 -23.6511 37.4028
rtibia 92.314
rfoot -4.20506 1.77997
rtoes -26.5915
lfemur -65.8139 4.90796 -19.4301
ltibia 77.2007
lfoot -5.62474 -17.1061
ltoes -4.41947
